# xmcd CD database file
#
# Track frame offsets:
#	150
#	12429
#	22347
#	36802
#	46428
#	62856
#	75194
#	89665
#	101035
#	113424
#	127458
#	140385
#	153310
#	166096
#	178874
#	191225
#	201899
#	214188
#	226001
#	242592
#
# Disc length: 3406 seconds
#
# Revision: 5
# Processed by: cddbd v1.5.1PL0 Copyright (c) Steve Scherf et al.
# Submitted via: CDex 1.51
#
DISCID=170d4c14
DTITLE=Merle Haggard - Country Gold
DYEAR=1900
DGENRE=Country
TTITLE0=Okie From Muskogee
TTITLE1=Mama Tried
TTITLE2=Branded Man
TTITLE3=The Legend Of Bonnie And Clyde
TTITLE4=Hungry Eyes
TTITLE5=Workin' Man Blues
TTITLE6=I'm A Lonesome Fugitive
TTITLE7=(My Friends Are Gonna Be) Strangers
TTITLE8=The Bottle Let Me Down
TTITLE9=Wine and Roses
TTITLE10=Swingin' Doors
TTITLE11=Sing Me Back Home
TTITLE12=Emptiest Arms In The World
TTITLE13=Turnin' Off A Memory
TTITLE14=Everybody's Had The Blues
TTITLE15=Someday We'll Look Back
TTITLE16=I Take A Lot Of Pride In What I Am
TTITLE17=Carolyn
TTITLE18=Daddy Frank
TTITLE19=The Fightin' Side Of Me
EXTD=
EXTT0=
EXTT1=
EXTT2=
EXTT3=
EXTT4=
EXTT5=
EXTT6=
EXTT7=
EXTT8=
EXTT9=
EXTT10=
EXTT11=
EXTT12=
EXTT13=
EXTT14=
EXTT15=
EXTT16=
EXTT17=
EXTT18=
EXTT19=
PLAYORDER=
